# xmcd
#
# Track frame offsets:
# 150
# 19906
# 39813
# 60049
# 78551
# 96161
# 113302
# 129948
# 150098
# 172803
# 181180
# 191397
# 208385
# 220986
# 235644
# 250283
# 265311
# 281852
# 310225
#
# Disc length: 4334 seconds
#
# Revision: 1
# Processed by: cddbd v1.4PL0 Copyright (c) Steve Scherf et al.
# Submitted via: CedeCatalogueitor 2.5 http://usuarios.lycos.es/kakasboy
#
DISCID=ee10ec13
DTITLE=KOJON PRIETO Y LOS HUAJOLOTES - ¡¡ ECHENLE GÚINDAS ALPAVO !!
DYEAR=1997
DGENRE=RANCHERAS PUNKYS
TTITLE0=¡ ENTRELE AL EUSKERA , BUEY !
TTITLE1=NAPARTHEID
TTITLE2=TXIBATO
TTITLE3=PEQUEÑO SALTAMONTES
TTITLE4=LOS BIGOTES DE LA MUERTE
TTITLE5=INSUMISION
TTITLE6=ERES UN HADA
TTITLE7=MALDITOS VECINOS
TTITLE8=CANCION DE RISA
TTITLE9=COMO UNA OLA
TTITLE10=EL MARIATXI
TTITLE11=LA TXOPERA
TTITLE12=A PAN Y CUCHILLO
TTITLE13=BILBAINADA
TTITLE14=CARCELERO
TTITLE15=EL FEO
TTITLE16=LA MULA DE PERICO
TTITLE17=EL TREN DE LA NEGRA
TTITLE18=HUAJOLOTE OINEZ
EXTD=
EXTT0=
EXTT1=
EXTT2=
EXTT3=
EXTT4=
EXTT5=
EXTT6=
EXTT7=
EXTT8=
EXTT9=
EXTT10=
EXTT11=
EXTT12=
EXTT13=
EXTT14=
EXTT15=
EXTT16=
EXTT17=
EXTT18=
PLAYORDER=
